{
    "patcher": {
        "fileversion": 1,
        "appversion": {
            "major": 9,
            "minor": 1,
            "revision": 3,
            "architecture": "x64",
            "modernui": 1
        },
        "classnamespace": "box",
        "rect": [ 293.0, 144.0, 1138.0, 793.0 ],
        "default_fontsize": 18.0,
        "boxes": [
            {
                "box": {
                    "color": [ 0.0, 0.5898008943, 1.0, 1.0 ],
                    "id": "obj-59",
                    "maxclass": "newobj",
                    "numinlets": 7,
                    "numoutlets": 2,
                    "outlettype": [ "int", "" ],
                    "patching_rect": [ 845.5, 645.0, 93.0, 29.0 ],
                    "text": "midiformat"
                }
            },
            {
                "box": {
                    "color": [ 0.0, 0.5898008943, 1.0, 1.0 ],
                    "id": "obj-58",
                    "maxclass": "newobj",
                    "numinlets": 3,
                    "numoutlets": 0,
                    "patching_rect": [ 776.0, 647.0, 52.0, 29.0 ],
                    "text": "ctlout"
                }
            },
            {
                "box": {
                    "color": [ 0.0, 0.5898008943, 1.0, 1.0 ],
                    "id": "obj-57",
                    "maxclass": "newobj",
                    "numinlets": 2,
                    "numoutlets": 0,
                    "patching_rect": [ 685.0, 647.0, 69.0, 29.0 ],
                    "text": "pgmout"
                }
            },
            {
                "box": {
                    "color": [ 0.0, 0.5898008943, 1.0, 1.0 ],
                    "id": "obj-56",
                    "maxclass": "newobj",
                    "numinlets": 3,
                    "numoutlets": 0,
                    "patching_rect": [ 571.0, 699.0, 69.0, 29.0 ],
                    "text": "noteout"
                }
            },
            {
                "box": {
                    "color": [ 0.0, 0.5898008943, 1.0, 1.0 ],
                    "id": "obj-55",
                    "maxclass": "newobj",
                    "numinlets": 3,
                    "numoutlets": 2,
                    "outlettype": [ "float", "float" ],
                    "patching_rect": [ 571.0, 647.0, 88.0, 29.0 ],
                    "text": "makenote"
                }
            },
            {
                "box": {
                    "id": "obj-54",
                    "maxclass": "comment",
                    "numinlets": 1,
                    "numoutlets": 0,
                    "patching_rect": [ 921.5, 706.0, 101.0, 27.0 ],
                    "text": "< raw bytes"
                }
            },
            {
                "box": {
                    "color": [ 0.0, 0.5898008943, 1.0, 1.0 ],
                    "id": "obj-52",
                    "maxclass": "newobj",
                    "numinlets": 1,
                    "numoutlets": 0,
                    "patching_rect": [ 845.5, 704.0, 67.0, 29.0 ],
                    "text": "midiout"
                }
            },
            {
                "box": {
                    "id": "obj-51",
                    "maxclass": "number",
                    "numinlets": 1,
                    "numoutlets": 2,
                    "outlettype": [ "", "bang" ],
                    "parameter_enable": 0,
                    "patching_rect": [ 955.0, 442.0, 50.0, 29.0 ]
                }
            },
            {
                "box": {
                    "color": [ 0.0, 0.5898008943, 1.0, 1.0 ],
                    "id": "obj-49",
                    "maxclass": "newobj",
                    "numinlets": 1,
                    "numoutlets": 1,
                    "outlettype": [ "int" ],
                    "patching_rect": [ 955.0, 382.0, 34.0, 29.0 ],
                    "text": "rtin"
                }
            },
            {
                "box": {
                    "id": "obj-48",
                    "maxclass": "number",
                    "numinlets": 1,
                    "numoutlets": 2,
                    "outlettype": [ "", "bang" ],
                    "parameter_enable": 0,
                    "patching_rect": [ 421.0, 636.0, 55.0, 29.0 ]
                }
            },
            {
                "box": {
                    "id": "obj-45",
                    "maxclass": "message",
                    "numinlets": 2,
                    "numoutlets": 1,
                    "outlettype": [ "" ],
                    "patching_rect": [ 181.8571428571429, 682.0, 112.0, 29.0 ]
                }
            },
            {
                "box": {
                    "id": "obj-44",
                    "maxclass": "message",
                    "numinlets": 2,
                    "numoutlets": 1,
                    "outlettype": [ "" ],
                    "patching_rect": [ 109.0, 641.0, 112.0, 29.0 ]
                }
            },
            {
                "box": {
                    "color": [ 0.0, 0.5898008943, 1.0, 1.0 ],
                    "id": "obj-42",
                    "maxclass": "newobj",
                    "numinlets": 1,
                    "numoutlets": 8,
                    "outlettype": [ "", "", "", "int", "int", "", "int", "" ],
                    "patching_rect": [ 202.0, 583.0, 274.0, 29.0 ],
                    "text": "midiparse"
                }
            },
            {
                "box": {
                    "id": "obj-41",
                    "maxclass": "comment",
                    "numinlets": 1,
                    "numoutlets": 0,
                    "patching_rect": [ 268.0, 477.0, 101.0, 27.0 ],
                    "text": "< raw bytes"
                }
            },
            {
                "box": {
                    "id": "obj-39",
                    "maxclass": "number",
                    "numinlets": 1,
                    "numoutlets": 2,
                    "outlettype": [ "", "bang" ],
                    "parameter_enable": 0,
                    "patching_rect": [ 202.0, 529.0, 56.0, 29.0 ]
                }
            },
            {
                "box": {
                    "color": [ 0.0, 0.5898008943, 1.0, 1.0 ],
                    "id": "obj-37",
                    "maxclass": "newobj",
                    "numinlets": 1,
                    "numoutlets": 1,
                    "outlettype": [ "int" ],
                    "patching_rect": [ 202.0, 477.0, 56.0, 29.0 ],
                    "text": "midiin"
                }
            },
            {
                "box": {
                    "id": "obj-34",
                    "maxclass": "number",
                    "numinlets": 1,
                    "numoutlets": 2,
                    "outlettype": [ "", "bang" ],
                    "parameter_enable": 0,
                    "patching_rect": [ 559.0, 442.0, 50.0, 29.0 ]
                }
            },
            {
                "box": {
                    "id": "obj-35",
                    "maxclass": "number",
                    "numinlets": 1,
                    "numoutlets": 2,
                    "outlettype": [ "", "bang" ],
                    "parameter_enable": 0,
                    "patching_rect": [ 497.0, 442.0, 50.0, 29.0 ]
                }
            },
            {
                "box": {
                    "color": [ 0.0, 0.5898008943, 1.0, 1.0 ],
                    "id": "obj-36",
                    "maxclass": "newobj",
                    "numinlets": 1,
                    "numoutlets": 2,
                    "outlettype": [ "int", "int" ],
                    "patching_rect": [ 497.0, 382.0, 81.0, 29.0 ],
                    "text": "bendin"
                }
            },
            {
                "box": {
                    "id": "obj-29",
                    "maxclass": "number",
                    "numinlets": 1,
                    "numoutlets": 2,
                    "outlettype": [ "", "bang" ],
                    "parameter_enable": 0,
                    "patching_rect": [ 856.0, 440.0, 50.0, 29.0 ]
                }
            },
            {
                "box": {
                    "id": "obj-30",
                    "maxclass": "number",
                    "numinlets": 1,
                    "numoutlets": 2,
                    "outlettype": [ "", "bang" ],
                    "parameter_enable": 0,
                    "patching_rect": [ 791.0, 438.0, 50.0, 29.0 ]
                }
            },
            {
                "box": {
                    "id": "obj-31",
                    "maxclass": "number",
                    "numinlets": 1,
                    "numoutlets": 2,
                    "outlettype": [ "", "bang" ],
                    "parameter_enable": 0,
                    "patching_rect": [ 729.0, 438.0, 50.0, 29.0 ]
                }
            },
            {
                "box": {
                    "color": [ 0.0, 0.5898008943, 1.0, 1.0 ],
                    "id": "obj-32",
                    "maxclass": "newobj",
                    "numinlets": 1,
                    "numoutlets": 3,
                    "outlettype": [ "int", "int", "int" ],
                    "patching_rect": [ 729.0, 382.0, 146.0, 29.0 ],
                    "text": "polyin"
                }
            },
            {
                "box": {
                    "id": "obj-26",
                    "maxclass": "number",
                    "numinlets": 1,
                    "numoutlets": 2,
                    "outlettype": [ "", "bang" ],
                    "parameter_enable": 0,
                    "patching_rect": [ 791.0, 301.0, 50.0, 29.0 ]
                }
            },
            {
                "box": {
                    "id": "obj-27",
                    "maxclass": "number",
                    "numinlets": 1,
                    "numoutlets": 2,
                    "outlettype": [ "", "bang" ],
                    "parameter_enable": 0,
                    "patching_rect": [ 729.0, 301.0, 50.0, 29.0 ]
                }
            },
            {
                "box": {
                    "color": [ 0.0, 0.5898008943, 1.0, 1.0 ],
                    "id": "obj-28",
                    "maxclass": "newobj",
                    "numinlets": 1,
                    "numoutlets": 2,
                    "outlettype": [ "int", "int" ],
                    "patching_rect": [ 729.0, 234.0, 81.0, 29.0 ],
                    "text": "touchin"
                }
            },
            {
                "box": {
                    "id": "obj-22",
                    "maxclass": "number",
                    "numinlets": 1,
                    "numoutlets": 2,
                    "outlettype": [ "", "bang" ],
                    "parameter_enable": 0,
                    "patching_rect": [ 567.0, 294.0, 50.0, 29.0 ]
                }
            },
            {
                "box": {
                    "id": "obj-23",
                    "maxclass": "number",
                    "numinlets": 1,
                    "numoutlets": 2,
                    "outlettype": [ "", "bang" ],
                    "parameter_enable": 0,
                    "patching_rect": [ 505.0, 294.0, 50.0, 29.0 ]
                }
            },
            {
                "box": {
                    "color": [ 0.0, 0.5898008943, 1.0, 1.0 ],
                    "id": "obj-24",
                    "maxclass": "newobj",
                    "numinlets": 1,
                    "numoutlets": 2,
                    "outlettype": [ "int", "int" ],
                    "patching_rect": [ 505.0, 234.0, 81.0, 29.0 ],
                    "text": "pgmin"
                }
            },
            {
                "box": {
                    "id": "obj-20",
                    "maxclass": "number",
                    "numinlets": 1,
                    "numoutlets": 2,
                    "outlettype": [ "", "bang" ],
                    "parameter_enable": 0,
                    "patching_rect": [ 919.5000000000001, 157.0, 50.0, 29.0 ]
                }
            },
            {
                "box": {
                    "id": "obj-16",
                    "maxclass": "number",
                    "numinlets": 1,
                    "numoutlets": 2,
                    "outlettype": [ "", "bang" ],
                    "parameter_enable": 0,
                    "patching_rect": [ 856.0, 157.0, 50.0, 29.0 ]
                }
            },
            {
                "box": {
                    "id": "obj-17",
                    "maxclass": "number",
                    "numinlets": 1,
                    "numoutlets": 2,
                    "outlettype": [ "", "bang" ],
                    "parameter_enable": 0,
                    "patching_rect": [ 791.0, 155.0, 50.0, 29.0 ]
                }
            },
            {
                "box": {
                    "id": "obj-18",
                    "maxclass": "number",
                    "numinlets": 1,
                    "numoutlets": 2,
                    "outlettype": [ "", "bang" ],
                    "parameter_enable": 0,
                    "patching_rect": [ 729.0, 155.0, 50.0, 29.0 ]
                }
            },
            {
                "box": {
                    "color": [ 0.0, 0.5898008943, 1.0, 1.0 ],
                    "id": "obj-19",
                    "maxclass": "newobj",
                    "numinlets": 1,
                    "numoutlets": 4,
                    "outlettype": [ "int", "int", "int", "int" ],
                    "patching_rect": [ 729.0, 95.0, 209.5000000000001, 29.0 ],
                    "text": "nrpnin"
                }
            },
            {
                "box": {
                    "id": "obj-12",
                    "maxclass": "number",
                    "numinlets": 1,
                    "numoutlets": 2,
                    "outlettype": [ "", "bang" ],
                    "parameter_enable": 0,
                    "patching_rect": [ 632.0, 157.0, 50.0, 29.0 ]
                }
            },
            {
                "box": {
                    "id": "obj-13",
                    "maxclass": "number",
                    "numinlets": 1,
                    "numoutlets": 2,
                    "outlettype": [ "", "bang" ],
                    "parameter_enable": 0,
                    "patching_rect": [ 567.0, 155.0, 50.0, 29.0 ]
                }
            },
            {
                "box": {
                    "id": "obj-14",
                    "maxclass": "number",
                    "numinlets": 1,
                    "numoutlets": 2,
                    "outlettype": [ "", "bang" ],
                    "parameter_enable": 0,
                    "patching_rect": [ 505.0, 155.0, 50.0, 29.0 ]
                }
            },
            {
                "box": {
                    "color": [ 0.0, 0.5898008943, 1.0, 1.0 ],
                    "id": "obj-15",
                    "maxclass": "newobj",
                    "numinlets": 1,
                    "numoutlets": 3,
                    "outlettype": [ "int", "int", "int" ],
                    "patching_rect": [ 505.0, 95.0, 146.0, 29.0 ],
                    "text": "ctlin"
                }
            },
            {
                "box": {
                    "id": "obj-11",
                    "maxclass": "kslider",
                    "numinlets": 2,
                    "numoutlets": 2,
                    "outlettype": [ "int", "int" ],
                    "parameter_enable": 0,
                    "patching_rect": [ 118.0, 354.0, 336.0, 53.0 ]
                }
            },
            {
                "box": {
                    "color": [ 0.0, 0.5898008943, 1.0, 1.0 ],
                    "id": "obj-10",
                    "maxclass": "newobj",
                    "numinlets": 2,
                    "numoutlets": 2,
                    "outlettype": [ "int", "int" ],
                    "patching_rect": [ 117.0, 296.0, 78.0, 29.0 ],
                    "text": "stripnote"
                }
            },
            {
                "box": {
                    "id": "obj-9",
                    "maxclass": "kslider",
                    "numinlets": 2,
                    "numoutlets": 2,
                    "outlettype": [ "int", "int" ],
                    "parameter_enable": 0,
                    "patching_rect": [ 118.0, 210.0, 336.0, 53.0 ]
                }
            },
            {
                "box": {
                    "id": "obj-8",
                    "maxclass": "number",
                    "numinlets": 1,
                    "numoutlets": 2,
                    "outlettype": [ "", "bang" ],
                    "parameter_enable": 0,
                    "patching_rect": [ 245.0, 157.0, 50.0, 29.0 ]
                }
            },
            {
                "box": {
                    "id": "obj-6",
                    "maxclass": "number",
                    "numinlets": 1,
                    "numoutlets": 2,
                    "outlettype": [ "", "bang" ],
                    "parameter_enable": 0,
                    "patching_rect": [ 180.0, 155.0, 50.0, 29.0 ]
                }
            },
            {
                "box": {
                    "id": "obj-4",
                    "maxclass": "number",
                    "numinlets": 1,
                    "numoutlets": 2,
                    "outlettype": [ "", "bang" ],
                    "parameter_enable": 0,
                    "patching_rect": [ 118.0, 155.0, 50.0, 29.0 ]
                }
            },
            {
                "box": {
                    "color": [ 0.0, 0.5898008943, 1.0, 1.0 ],
                    "id": "obj-2",
                    "maxclass": "newobj",
                    "numinlets": 1,
                    "numoutlets": 3,
                    "outlettype": [ "int", "int", "int" ],
                    "patching_rect": [ 118.0, 95.0, 146.0, 29.0 ],
                    "text": "notein"
                }
            }
        ],
        "lines": [
            {
                "patchline": {
                    "destination": [ "obj-11", 0 ],
                    "source": [ "obj-10", 0 ]
                }
            },
            {
                "patchline": {
                    "destination": [ "obj-12", 0 ],
                    "source": [ "obj-15", 2 ]
                }
            },
            {
                "patchline": {
                    "destination": [ "obj-13", 0 ],
                    "source": [ "obj-15", 1 ]
                }
            },
            {
                "patchline": {
                    "destination": [ "obj-14", 0 ],
                    "source": [ "obj-15", 0 ]
                }
            },
            {
                "patchline": {
                    "destination": [ "obj-16", 0 ],
                    "source": [ "obj-19", 2 ]
                }
            },
            {
                "patchline": {
                    "destination": [ "obj-17", 0 ],
                    "source": [ "obj-19", 1 ]
                }
            },
            {
                "patchline": {
                    "destination": [ "obj-18", 0 ],
                    "source": [ "obj-19", 0 ]
                }
            },
            {
                "patchline": {
                    "destination": [ "obj-20", 0 ],
                    "source": [ "obj-19", 3 ]
                }
            },
            {
                "patchline": {
                    "destination": [ "obj-4", 0 ],
                    "source": [ "obj-2", 0 ]
                }
            },
            {
                "patchline": {
                    "destination": [ "obj-6", 0 ],
                    "source": [ "obj-2", 1 ]
                }
            },
            {
                "patchline": {
                    "destination": [ "obj-8", 0 ],
                    "source": [ "obj-2", 2 ]
                }
            },
            {
                "patchline": {
                    "destination": [ "obj-22", 0 ],
                    "source": [ "obj-24", 1 ]
                }
            },
            {
                "patchline": {
                    "destination": [ "obj-23", 0 ],
                    "source": [ "obj-24", 0 ]
                }
            },
            {
                "patchline": {
                    "destination": [ "obj-26", 0 ],
                    "source": [ "obj-28", 1 ]
                }
            },
            {
                "patchline": {
                    "destination": [ "obj-27", 0 ],
                    "source": [ "obj-28", 0 ]
                }
            },
            {
                "patchline": {
                    "destination": [ "obj-29", 0 ],
                    "source": [ "obj-32", 2 ]
                }
            },
            {
                "patchline": {
                    "destination": [ "obj-30", 0 ],
                    "source": [ "obj-32", 1 ]
                }
            },
            {
                "patchline": {
                    "destination": [ "obj-31", 0 ],
                    "source": [ "obj-32", 0 ]
                }
            },
            {
                "patchline": {
                    "destination": [ "obj-34", 0 ],
                    "source": [ "obj-36", 1 ]
                }
            },
            {
                "patchline": {
                    "destination": [ "obj-35", 0 ],
                    "source": [ "obj-36", 0 ]
                }
            },
            {
                "patchline": {
                    "destination": [ "obj-39", 0 ],
                    "source": [ "obj-37", 0 ]
                }
            },
            {
                "patchline": {
                    "destination": [ "obj-42", 0 ],
                    "source": [ "obj-39", 0 ]
                }
            },
            {
                "patchline": {
                    "destination": [ "obj-9", 0 ],
                    "source": [ "obj-4", 0 ]
                }
            },
            {
                "patchline": {
                    "destination": [ "obj-44", 1 ],
                    "source": [ "obj-42", 0 ]
                }
            },
            {
                "patchline": {
                    "destination": [ "obj-45", 1 ],
                    "source": [ "obj-42", 2 ]
                }
            },
            {
                "patchline": {
                    "destination": [ "obj-48", 0 ],
                    "source": [ "obj-42", 6 ]
                }
            },
            {
                "patchline": {
                    "destination": [ "obj-51", 0 ],
                    "source": [ "obj-49", 0 ]
                }
            },
            {
                "patchline": {
                    "destination": [ "obj-56", 1 ],
                    "source": [ "obj-55", 1 ]
                }
            },
            {
                "patchline": {
                    "destination": [ "obj-56", 0 ],
                    "source": [ "obj-55", 0 ]
                }
            },
            {
                "patchline": {
                    "destination": [ "obj-52", 0 ],
                    "source": [ "obj-59", 0 ]
                }
            },
            {
                "patchline": {
                    "destination": [ "obj-9", 1 ],
                    "source": [ "obj-6", 0 ]
                }
            },
            {
                "patchline": {
                    "destination": [ "obj-10", 1 ],
                    "source": [ "obj-9", 1 ]
                }
            },
            {
                "patchline": {
                    "destination": [ "obj-10", 0 ],
                    "source": [ "obj-9", 0 ]
                }
            }
        ],
        "autosave": 0
    }
}