{
    "patcher": {
        "fileversion": 1,
        "appversion": {
            "major": 9,
            "minor": 1,
            "revision": 3,
            "architecture": "x64",
            "modernui": 1
        },
        "classnamespace": "box",
        "rect": [ 293.0, 144.0, 600.0, 592.0 ],
        "default_fontsize": 18.0,
        "boxes": [
            {
                "box": {
                    "id": "obj-26",
                    "linecount": 2,
                    "maxclass": "comment",
                    "numinlets": 1,
                    "numoutlets": 0,
                    "patching_rect": [ 238.0, 433.0, 173.0, 47.0 ],
                    "presentation_linecount": 2,
                    "text": "< parse as Max data (numbers, etc.)"
                }
            },
            {
                "box": {
                    "id": "obj-25",
                    "maxclass": "comment",
                    "numinlets": 1,
                    "numoutlets": 0,
                    "patching_rect": [ 237.5, 380.0, 202.0, 27.0 ],
                    "presentation_linecount": 2,
                    "text": "< convert bytes to ASCII"
                }
            },
            {
                "box": {
                    "id": "obj-24",
                    "linecount": 2,
                    "maxclass": "comment",
                    "numinlets": 1,
                    "numoutlets": 0,
                    "patching_rect": [ 237.5, 324.0, 178.0, 47.0 ],
                    "presentation_linecount": 2,
                    "text": "< group on carriage return / line feed"
                }
            },
            {
                "box": {
                    "id": "obj-23",
                    "maxclass": "comment",
                    "numinlets": 1,
                    "numoutlets": 0,
                    "patching_rect": [ 304.0, 516.0, 178.0, 27.0 ],
                    "text": "< actual Arduino data"
                }
            },
            {
                "box": {
                    "id": "obj-21",
                    "maxclass": "message",
                    "numinlets": 2,
                    "numoutlets": 1,
                    "outlettype": [ "" ],
                    "patching_rect": [ 110.0, 515.0, 177.0, 29.0 ]
                }
            },
            {
                "box": {
                    "color": [ 0.0, 0.5898008943, 1.0, 1.0 ],
                    "id": "obj-18",
                    "maxclass": "newobj",
                    "numinlets": 1,
                    "numoutlets": 1,
                    "outlettype": [ "" ],
                    "patching_rect": [ 121.0, 432.0, 102.0, 29.0 ],
                    "text": "fromsymbol"
                }
            },
            {
                "box": {
                    "color": [ 0.0, 0.5898008943, 1.0, 1.0 ],
                    "id": "obj-17",
                    "maxclass": "newobj",
                    "numinlets": 3,
                    "numoutlets": 1,
                    "outlettype": [ "int" ],
                    "patching_rect": [ 122.0, 379.0, 40.0, 29.0 ],
                    "text": "itoa"
                }
            },
            {
                "box": {
                    "color": [ 0.0, 0.5898008943, 1.0, 1.0 ],
                    "id": "obj-16",
                    "maxclass": "newobj",
                    "numinlets": 2,
                    "numoutlets": 2,
                    "outlettype": [ "", "" ],
                    "patching_rect": [ 122.0, 323.0, 108.0, 29.0 ],
                    "text": "zl group 100"
                }
            },
            {
                "box": {
                    "color": [ 0.0, 0.5898008943, 1.0, 1.0 ],
                    "id": "obj-15",
                    "maxclass": "newobj",
                    "numinlets": 3,
                    "numoutlets": 3,
                    "outlettype": [ "bang", "bang", "" ],
                    "patching_rect": [ 122.0, 268.0, 82.0, 29.0 ],
                    "text": "sel 10 13"
                }
            },
            {
                "box": {
                    "id": "obj-14",
                    "maxclass": "comment",
                    "numinlets": 1,
                    "numoutlets": 0,
                    "patching_rect": [ 247.0, 209.0, 101.0, 27.0 ],
                    "text": "< raw bytes"
                }
            },
            {
                "box": {
                    "id": "obj-12",
                    "maxclass": "number",
                    "numinlets": 1,
                    "numoutlets": 2,
                    "outlettype": [ "", "bang" ],
                    "parameter_enable": 0,
                    "patching_rect": [ 123.0, 209.0, 112.0, 29.0 ]
                }
            },
            {
                "box": {
                    "id": "obj-10",
                    "maxclass": "comment",
                    "numinlets": 1,
                    "numoutlets": 0,
                    "patching_rect": [ 22.0, 64.0, 97.0, 27.0 ],
                    "text": "list devices"
                }
            },
            {
                "box": {
                    "id": "obj-8",
                    "maxclass": "comment",
                    "numinlets": 1,
                    "numoutlets": 0,
                    "patching_rect": [ 218.0, 98.0, 217.0, 27.0 ],
                    "text": "< hardware-yielding metro"
                }
            },
            {
                "box": {
                    "id": "obj-6",
                    "maxclass": "toggle",
                    "numinlets": 1,
                    "numoutlets": 1,
                    "outlettype": [ "int" ],
                    "parameter_enable": 0,
                    "patching_rect": [ 123.0, 50.0, 24.0, 24.0 ]
                }
            },
            {
                "box": {
                    "color": [ 0.0, 0.5898008943, 1.0, 1.0 ],
                    "id": "obj-4",
                    "maxclass": "newobj",
                    "numinlets": 2,
                    "numoutlets": 1,
                    "outlettype": [ "bang" ],
                    "patching_rect": [ 123.0, 97.0, 90.0, 29.0 ],
                    "text": "qmetro 20"
                }
            },
            {
                "box": {
                    "id": "obj-3",
                    "maxclass": "message",
                    "numinlets": 2,
                    "numoutlets": 1,
                    "outlettype": [ "" ],
                    "patching_rect": [ 56.0, 97.0, 44.0, 29.0 ],
                    "text": "print"
                }
            },
            {
                "box": {
                    "color": [ 0.0, 0.5898008943, 1.0, 1.0 ],
                    "id": "obj-2",
                    "maxclass": "newobj",
                    "numinlets": 1,
                    "numoutlets": 2,
                    "outlettype": [ "int", "" ],
                    "patching_rect": [ 123.0, 156.0, 112.0, 29.0 ],
                    "text": "serial a 9600"
                }
            }
        ],
        "lines": [
            {
                "patchline": {
                    "destination": [ "obj-15", 0 ],
                    "source": [ "obj-12", 0 ]
                }
            },
            {
                "patchline": {
                    "destination": [ "obj-16", 0 ],
                    "source": [ "obj-15", 2 ]
                }
            },
            {
                "patchline": {
                    "destination": [ "obj-16", 0 ],
                    "source": [ "obj-15", 0 ]
                }
            },
            {
                "patchline": {
                    "destination": [ "obj-17", 0 ],
                    "source": [ "obj-16", 0 ]
                }
            },
            {
                "patchline": {
                    "destination": [ "obj-18", 0 ],
                    "source": [ "obj-17", 0 ]
                }
            },
            {
                "patchline": {
                    "destination": [ "obj-21", 1 ],
                    "source": [ "obj-18", 0 ]
                }
            },
            {
                "patchline": {
                    "destination": [ "obj-12", 0 ],
                    "source": [ "obj-2", 0 ]
                }
            },
            {
                "patchline": {
                    "destination": [ "obj-2", 0 ],
                    "source": [ "obj-3", 0 ]
                }
            },
            {
                "patchline": {
                    "destination": [ "obj-2", 0 ],
                    "source": [ "obj-4", 0 ]
                }
            },
            {
                "patchline": {
                    "destination": [ "obj-4", 0 ],
                    "source": [ "obj-6", 0 ]
                }
            }
        ],
        "autosave": 0
    }
}